<svg xmlns="http://www.w3.org/2000/svg" width="1920" height="1080" viewBox="0 0 1920 1080"><defs><marker id="arrow" viewBox="0 0 10 10" refX="9" refY="5" markerWidth="8" markerHeight="8" orient="auto-start-reverse"><path d="M 0 0 L 10 5 L 0 10 z" fill="#425466"/></marker><filter id="softShadow" x="-20%" y="-20%" width="140%" height="140%"><feDropShadow dx="0" dy="4" stdDeviation="6" flood-color="#0F172A" flood-opacity="0.10"/></filter></defs><rect width="1920" height="1080" fill="#F4F7FB"/><g filter="url(#softShadow)"><rect x="40" y="20" width="1840" height="60" rx="0" ry="0" fill="#0B3D91" stroke="#082B66" stroke-width="1.5"/><text x="960.0" y="41.0" fill="#FFFFFF" text-anchor="middle" font-family="Helvetica, Arial, sans-serif" font-weight="700"><tspan x="960.0" dy="0" font-size="26">Walkthrough 3: Data Lineage and Mutation Safety</tspan><tspan x="960.0" dy="18" font-size="14">How configuration, mappings, execution history, and logs relate</tspan></text><rect x="120" y="220" width="280" height="120" rx="14" ry="14" fill="#DCEBFF" stroke="#4F81BD" stroke-width="2"/><text x="260.0" y="264.0" fill="#10233A" text-anchor="middle" font-family="Helvetica, Arial, sans-serif" font-weight="500"><tspan x="260.0" dy="0" font-size="13">Settings.xml</tspan><tspan x="260.0" dy="16" font-size="13">job configuration authority</tspan><tspan x="260.0" dy="16" font-size="13">MailboxCollection / FolderCollection</tspan></text><rect x="460" y="220" width="280" height="120" rx="14" ry="14" fill="#FFF1D6" stroke="#C6861A" stroke-width="2"/><text x="600.0" y="272.0" fill="#4A3300" text-anchor="middle" font-family="Helvetica, Arial, sans-serif" font-weight="500"><tspan x="600.0" dy="0" font-size="13">XmlWriter</tspan><tspan x="600.0" dy="16" font-size="13">backup -&gt; write -&gt; verify -&gt; restore on failure</tspan></text><rect x="800" y="220" width="220" height="120" rx="14" ry="14" fill="#F3EEFF" stroke="#7B61C8" stroke-width="2"/><text x="910.0" y="272.0" fill="#241742" text-anchor="middle" font-family="Helvetica, Arial, sans-serif" font-weight="500"><tspan x="910.0" dy="0" font-size="13">backup/ folder</tspan><tspan x="910.0" dy="16" font-size="13">timestamped snapshots</tspan></text><rect x="1080" y="220" width="280" height="120" rx="14" ry="14" fill="#F3EEFF" stroke="#7B61C8" stroke-width="2"/><text x="1220.0" y="272.0" fill="#241742" text-anchor="middle" font-family="Helvetica, Arial, sans-serif" font-weight="500"><tspan x="1220.0" dy="0" font-size="13">SQLite XML cache</tspan><tspan x="1220.0" dy="16" font-size="13">mirror for fast search and deterministic lookup</tspan></text><rect x="1420" y="220" width="280" height="120" rx="14" ry="14" fill="#EAF6EE" stroke="#5B9B6B" stroke-width="2"/><text x="1560.0" y="272.0" fill="#163322" text-anchor="middle" font-family="Helvetica, Arial, sans-serif" font-weight="500"><tspan x="1560.0" dy="0" font-size="13">tblExternalDIDRef</tspan><tspan x="1560.0" dy="16" font-size="13">CompanyID -&gt; DID + ImportDID</tspan></text><rect x="120" y="540" width="220" height="90" rx="14" ry="14" fill="#FFF1D6" stroke="#C6861A" stroke-width="2"/><text x="230.0" y="585.0" fill="#4A3300" text-anchor="middle" font-family="Helvetica, Arial, sans-serif" font-weight="500"><tspan x="230.0" dy="0" font-size="13">Incoming email / SFTP event</tspan></text><rect x="400" y="540" width="220" height="90" rx="14" ry="14" fill="#EAF6EE" stroke="#5B9B6B" stroke-width="2"/><text x="510.0" y="577.0" fill="#163322" text-anchor="middle" font-family="Helvetica, Arial, sans-serif" font-weight="500"><tspan x="510.0" dy="0" font-size="13">Application log files</tspan><tspan x="510.0" dy="16" font-size="13">operational trace</tspan></text><rect x="680" y="540" width="220" height="90" rx="14" ry="14" fill="#F3EEFF" stroke="#7B61C8" stroke-width="2"/><text x="790.0" y="577.0" fill="#241742" text-anchor="middle" font-family="Helvetica, Arial, sans-serif" font-weight="500"><tspan x="790.0" dy="0" font-size="13">SQLite log index</tspan><tspan x="790.0" dy="16" font-size="13">searchable evidence</tspan></text><rect x="960" y="540" width="280" height="90" rx="14" ry="14" fill="#F3EEFF" stroke="#7B61C8" stroke-width="2"/><text x="1100.0" y="577.0" fill="#241742" text-anchor="middle" font-family="Helvetica, Arial, sans-serif" font-weight="500"><tspan x="1100.0" dy="0" font-size="13">tblTemplateStaging</tspan><tspan x="1100.0" dy="16" font-size="13">execution history and status</tspan></text><rect x="1300" y="520" width="400" height="130" rx="14" ry="14" fill="#DCEBFF" stroke="#4F81BD" stroke-width="2"/><text x="1500.0" y="577.0" fill="#10233A" text-anchor="middle" font-family="Helvetica, Arial, sans-serif" font-weight="500"><tspan x="1500.0" dy="0" font-size="13">Cross-link features</tspan><tspan x="1500.0" dy="16" font-size="13">triage, log_linkage, staging_linkage, deal_pipeline</tspan></text><rect x="520" y="760" width="860" height="140" rx="14" ry="14" fill="#FFF8CC" stroke="#B89B00" stroke-width="1.5" stroke-dasharray="8 6"/><text x="950.0" y="798.0" fill="#5E4B00" text-anchor="middle" font-family="Helvetica, Arial, sans-serif" font-weight="500"><tspan x="950.0" dy="0" font-size="13">Authoritative order:</tspan><tspan x="950.0" dy="16" font-size="13">1. Settings.xml</tspan><tspan x="950.0" dy="16" font-size="13">2. Deal mapping reference</tspan><tspan x="950.0" dy="16" font-size="13">3. Processing history + logs as evidence</tspan><tspan x="950.0" dy="16" font-size="13">SQLite stores accelerate access but do not replace source systems.</tspan></text></g><g><path d="M 400.0 280.0 L 430.0 280.0 L 430.0 280.0 L 460.0 280.0" fill="none" stroke="#425466" stroke-width="1.5" marker-end="url(#arrow)"/><path d="M 740.0 280.0 L 770.0 280.0 L 770.0 280.0 L 800.0 280.0" fill="none" stroke="#425466" stroke-width="1.5" marker-end="url(#arrow)"/><path d="M 740.0 280.0 L 910.0 280.0 L 910.0 280.0 L 1080.0 280.0" fill="none" stroke="#425466" stroke-width="1.5" marker-end="url(#arrow)"/><path d="M 400.0 280.0 L 910.0 280.0 L 910.0 280.0 L 1420.0 280.0" fill="none" stroke="#425466" stroke-width="1.5" marker-end="url(#arrow)"/><path d="M 340.0 585.0 L 370.0 585.0 L 370.0 585.0 L 400.0 585.0" fill="none" stroke="#425466" stroke-width="1.5" marker-end="url(#arrow)"/><path d="M 620.0 585.0 L 650.0 585.0 L 650.0 585.0 L 680.0 585.0" fill="none" stroke="#425466" stroke-width="1.5" marker-end="url(#arrow)"/><path d="M 340.0 585.0 L 650.0 585.0 L 650.0 585.0 L 960.0 585.0" fill="none" stroke="#425466" stroke-width="1.5" marker-end="url(#arrow)"/><path d="M 1560.0 340.0 L 1560.0 430.0 L 1500.0 430.0 L 1500.0 520.0" fill="none" stroke="#425466" stroke-width="1.5" marker-end="url(#arrow)"/><path d="M 900.0 585.0 L 1100.0 585.0 L 1100.0 585.0 L 1300.0 585.0" fill="none" stroke="#425466" stroke-width="1.5" marker-end="url(#arrow)"/><path d="M 1240.0 585.0 L 1270.0 585.0 L 1270.0 585.0 L 1300.0 585.0" fill="none" stroke="#425466" stroke-width="1.5" marker-end="url(#arrow)"/><path d="M 1220.0 340.0 L 1220.0 430.0 L 1500.0 430.0 L 1500.0 520.0" fill="none" stroke="#425466" stroke-width="1.5" marker-end="url(#arrow)"/><path d="M 400.0 280.0 L 850.0 280.0 L 850.0 585.0 L 1300.0 585.0" fill="none" stroke="#425466" stroke-width="1.5" marker-end="url(#arrow)"/></g></svg>