<svg xmlns="http://www.w3.org/2000/svg" width="1920" height="1080" viewBox="0 0 1920 1080"><defs><marker id="arrow" viewBox="0 0 10 10" refX="9" refY="5" markerWidth="8" markerHeight="8" orient="auto-start-reverse"><path d="M 0 0 L 10 5 L 0 10 z" fill="#425466"/></marker><filter id="softShadow" x="-20%" y="-20%" width="140%" height="140%"><feDropShadow dx="0" dy="4" stdDeviation="6" flood-color="#0F172A" flood-opacity="0.10"/></filter></defs><rect width="1920" height="1080" fill="#F4F7FB"/><g filter="url(#softShadow)"><rect x="40" y="20" width="1840" height="60" rx="0" ry="0" fill="#0B3D91" stroke="#082B66" stroke-width="1.5"/><text x="960.0" y="41.0" fill="#FFFFFF" text-anchor="middle" font-family="Helvetica, Arial, sans-serif" font-weight="700"><tspan x="960.0" dy="0" font-size="26">FRP Agent Master Architecture</tspan><tspan x="960.0" dy="18" font-size="14">Executive summary of runtime architecture and system boundaries</tspan></text><rect x="40" y="110" width="260" height="860" rx="10" ry="10" fill="#F7F9FC" stroke="#C9D2E3" stroke-width="1.5"/><rect x="40" y="110" width="260" height="34" rx="10" ry="10" fill="#EEF3FA" stroke="#C9D2E3" stroke-width="1.5"/><text x="58" y="133" fill="#1C2A39" font-family="Helvetica, Arial, sans-serif" font-size="15" font-weight="700">Operator Interface</text><rect x="310" y="110" width="340" height="860" rx="10" ry="10" fill="#F7F9FC" stroke="#C9D2E3" stroke-width="1.5"/><rect x="310" y="110" width="340" height="34" rx="10" ry="10" fill="#EEF3FA" stroke="#C9D2E3" stroke-width="1.5"/><text x="328" y="133" fill="#1C2A39" font-family="Helvetica, Arial, sans-serif" font-size="15" font-weight="700">VS Code Extension</text><rect x="660" y="110" width="250" height="860" rx="10" ry="10" fill="#F7F9FC" stroke="#C9D2E3" stroke-width="1.5"/><rect x="660" y="110" width="250" height="34" rx="10" ry="10" fill="#EEF3FA" stroke="#C9D2E3" stroke-width="1.5"/><text x="678" y="133" fill="#1C2A39" font-family="Helvetica, Arial, sans-serif" font-size="15" font-weight="700">Python CLI Boundary</text><rect x="920" y="110" width="560" height="860" rx="10" ry="10" fill="#F7F9FC" stroke="#C9D2E3" stroke-width="1.5"/><rect x="920" y="110" width="560" height="34" rx="10" ry="10" fill="#EEF3FA" stroke="#C9D2E3" stroke-width="1.5"/><text x="938" y="133" fill="#1C2A39" font-family="Helvetica, Arial, sans-serif" font-size="15" font-weight="700">Backend Domains</text><rect x="1490" y="110" width="390" height="860" rx="10" ry="10" fill="#F7F9FC" stroke="#C9D2E3" stroke-width="1.5"/><rect x="1490" y="110" width="390" height="34" rx="10" ry="10" fill="#EEF3FA" stroke="#C9D2E3" stroke-width="1.5"/><text x="1508" y="133" fill="#1C2A39" font-family="Helvetica, Arial, sans-serif" font-size="15" font-weight="700">Persistent Stores</text><rect x="70" y="180" width="200" height="70" rx="14" ry="14" fill="#DCEBFF" stroke="#4F81BD" stroke-width="2"/><text x="170.0" y="215.0" fill="#10233A" text-anchor="middle" font-family="Helvetica, Arial, sans-serif" font-weight="500"><tspan x="170.0" dy="0" font-size="13">Architect / Operator</tspan></text><rect x="70" y="320" width="200" height="90" rx="14" ry="14" fill="#FFF1D6" stroke="#C6861A" stroke-width="2"/><text x="170.0" y="357.0" fill="#4A3300" text-anchor="middle" font-family="Helvetica, Arial, sans-serif" font-weight="500"><tspan x="170.0" dy="0" font-size="13">GitHub Copilot Chat</tspan><tspan x="170.0" dy="16" font-size="13">Natural-language prompts</tspan></text><rect x="370" y="160" width="220" height="80" rx="14" ry="14" fill="#DCEBFF" stroke="#4F81BD" stroke-width="2"/><text x="480.0" y="192.0" fill="#10233A" text-anchor="middle" font-family="Helvetica, Arial, sans-serif" font-weight="500"><tspan x="480.0" dy="0" font-size="13">extension/extension.js</tspan><tspan x="480.0" dy="16" font-size="13">activation + backend bootstrap</tspan></text><rect x="350" y="300" width="260" height="100" rx="14" ry="14" fill="#EAF6EE" stroke="#5B9B6B" stroke-width="2"/><text x="480.0" y="342.0" fill="#163322" text-anchor="middle" font-family="Helvetica, Arial, sans-serif" font-weight="500"><tspan x="480.0" dy="0" font-size="13">chat/participant.js</tspan><tspan x="480.0" dy="16" font-size="13">slash routing + deterministic orchestration</tspan></text><rect x="350" y="470" width="260" height="90" rx="14" ry="14" fill="#EAF6EE" stroke="#5B9B6B" stroke-width="2"/><text x="480.0" y="507.0" fill="#163322" text-anchor="middle" font-family="Helvetica, Arial, sans-serif" font-weight="500"><tspan x="480.0" dy="0" font-size="13">copilot/tool.js</tspan><tspan x="480.0" dy="16" font-size="13">config injection + backendCall() + timeouts</tspan></text><rect x="350" y="630" width="260" height="90" rx="14" ry="14" fill="#DCEBFF" stroke="#4F81BD" stroke-width="2"/><text x="480.0" y="667.0" fill="#10233A" text-anchor="middle" font-family="Helvetica, Arial, sans-serif" font-weight="500"><tspan x="480.0" dy="0" font-size="13">lib/frp_backend.js</tspan><tspan x="480.0" dy="16" font-size="13">persistent process + JSON line transport</tspan></text><rect x="370" y="790" width="220" height="80" rx="14" ry="14" fill="#FFF1D6" stroke="#C6861A" stroke-width="2"/><text x="480.0" y="822.0" fill="#4A3300" text-anchor="middle" font-family="Helvetica, Arial, sans-serif" font-weight="500"><tspan x="480.0" dy="0" font-size="13">package.json</tspan><tspan x="480.0" dy="16" font-size="13">chat commands + extension settings</tspan></text><rect x="700" y="250" width="170" height="100" rx="14" ry="14" fill="#DCEBFF" stroke="#4F81BD" stroke-width="2"/><text x="785.0" y="284.0" fill="#10233A" text-anchor="middle" font-family="Helvetica, Arial, sans-serif" font-weight="500"><tspan x="785.0" dy="0" font-size="13">cli/main.py</tspan><tspan x="785.0" dy="16" font-size="13">argparse subcommands</tspan><tspan x="785.0" dy="16" font-size="13">JSON stdout contract</tspan></text><rect x="690" y="470" width="190" height="110" rx="14" ry="14" fill="#EAF6EE" stroke="#5B9B6B" stroke-width="2"/><text x="785.0" y="517.0" fill="#163322" text-anchor="middle" font-family="Helvetica, Arial, sans-serif" font-weight="500"><tspan x="785.0" dy="0" font-size="13">_COMMAND_DISPATCH</tspan><tspan x="785.0" dy="16" font-size="13">search, clone, logs, triage, analysis, staging</tspan></text><rect x="695" y="660" width="180" height="100" rx="14" ry="14" fill="#FFF1D6" stroke="#C6861A" stroke-width="2"/><text x="785.0" y="694.0" fill="#4A3300" text-anchor="middle" font-family="Helvetica, Arial, sans-serif" font-weight="500"><tspan x="785.0" dy="0" font-size="13">--server mode</tspan><tspan x="785.0" dy="16" font-size="13">ready / ping / exit</tspan><tspan x="785.0" dy="16" font-size="13">stdin request -&gt; stdout response</tspan></text><rect x="1000" y="250" width="400" height="220" rx="14" ry="14" fill="#DCEBFF" stroke="#4F81BD" stroke-width="2"/><text x="1200.0" y="328.0" fill="#10233A" text-anchor="middle" font-family="Helvetica, Arial, sans-serif" font-weight="500"><tspan x="1200.0" dy="0" font-size="13">Backend service domains</tspan><tspan x="1200.0" dy="16" font-size="13">XML configuration</tspan><tspan x="1200.0" dy="16" font-size="13">Log ingestion and analytics</tspan><tspan x="1200.0" dy="16" font-size="13">Deal and staging repositories</tspan><tspan x="1200.0" dy="16" font-size="13">Triage and impact analysis</tspan></text><rect x="1000" y="620" width="400" height="160" rx="14" ry="14" fill="#FFF8CC" stroke="#B89B00" stroke-width="1.5" stroke-dasharray="8 6"/><text x="1200.0" y="668.0" fill="#5E4B00" text-anchor="middle" font-family="Helvetica, Arial, sans-serif" font-weight="500"><tspan x="1200.0" dy="0" font-size="13">Operating rules</tspan><tspan x="1200.0" dy="16" font-size="13">XML is authoritative</tspan><tspan x="1200.0" dy="16" font-size="13">SQLite accelerates lookup</tspan><tspan x="1200.0" dy="16" font-size="13">backups are mandatory on writes</tspan><tspan x="1200.0" dy="16" font-size="13">log refresh is user-triggered</tspan></text><rect x="1560" y="170" width="250" height="90" rx="14" ry="14" fill="#F3EEFF" stroke="#7B61C8" stroke-width="2"/><text x="1685.0" y="207.0" fill="#241742" text-anchor="middle" font-family="Helvetica, Arial, sans-serif" font-weight="500"><tspan x="1685.0" dy="0" font-size="13">Email + SFTP Settings.xml</tspan><tspan x="1685.0" dy="16" font-size="13">source of truth</tspan></text><rect x="1560" y="310" width="250" height="80" rx="14" ry="14" fill="#F3EEFF" stroke="#7B61C8" stroke-width="2"/><text x="1685.0" y="342.0" fill="#241742" text-anchor="middle" font-family="Helvetica, Arial, sans-serif" font-weight="500"><tspan x="1685.0" dy="0" font-size="13">backup/ snapshots</tspan><tspan x="1685.0" dy="16" font-size="13">rollback points</tspan></text><rect x="1560" y="450" width="250" height="90" rx="14" ry="14" fill="#F3EEFF" stroke="#7B61C8" stroke-width="2"/><text x="1685.0" y="487.0" fill="#241742" text-anchor="middle" font-family="Helvetica, Arial, sans-serif" font-weight="500"><tspan x="1685.0" dy="0" font-size="13">SQLite XML cache</tspan><tspan x="1685.0" dy="16" font-size="13">email_jobs + sftp_jobs</tspan></text><rect x="1560" y="590" width="250" height="90" rx="14" ry="14" fill="#F3EEFF" stroke="#7B61C8" stroke-width="2"/><text x="1685.0" y="627.0" fill="#241742" text-anchor="middle" font-family="Helvetica, Arial, sans-serif" font-weight="500"><tspan x="1685.0" dy="0" font-size="13">SQLite log index</tspan><tspan x="1685.0" dy="16" font-size="13">log_events + indexed_files</tspan></text><rect x="1560" y="730" width="250" height="110" rx="14" ry="14" fill="#F3EEFF" stroke="#7B61C8" stroke-width="2"/><text x="1685.0" y="769.0" fill="#241742" text-anchor="middle" font-family="Helvetica, Arial, sans-serif" font-weight="500"><tspan x="1685.0" dy="0" font-size="13">tblExternalDIDRef</tspan><tspan x="1685.0" dy="16" font-size="13">tblTemplateStaging</tspan><tspan x="1685.0" dy="16" font-size="13">MySQL or MSSQL</tspan></text></g><g><path d="M 170.0 250.0 L 170.0 285.0 L 170.0 285.0 L 170.0 320.0" fill="none" stroke="#425466" stroke-width="1.5" marker-end="url(#arrow)"/><path d="M 270.0 365.0 L 310.0 365.0 L 310.0 350.0 L 350.0 350.0" fill="none" stroke="#425466" stroke-width="1.5" marker-end="url(#arrow)"/><path d="M 480.0 400.0 L 480.0 435.0 L 480.0 435.0 L 480.0 470.0" fill="none" stroke="#425466" stroke-width="1.5" marker-end="url(#arrow)"/><path d="M 480.0 560.0 L 480.0 595.0 L 480.0 595.0 L 480.0 630.0" fill="none" stroke="#425466" stroke-width="1.5" marker-end="url(#arrow)"/><path d="M 610.0 675.0 L 652.5 675.0 L 652.5 710.0 L 695.0 710.0" fill="none" stroke="#425466" stroke-width="1.5" marker-end="url(#arrow)"/><path d="M 785.0 660.0 L 785.0 505.0 L 785.0 505.0 L 785.0 350.0" fill="none" stroke="#425466" stroke-width="1.5" marker-end="url(#arrow)"/><path d="M 785.0 350.0 L 785.0 410.0 L 785.0 410.0 L 785.0 470.0" fill="none" stroke="#425466" stroke-width="1.5" marker-end="url(#arrow)"/><path d="M 880.0 525.0 L 1220.0 525.0 L 1220.0 215.0 L 1560.0 215.0" fill="none" stroke="#425466" stroke-width="1.5" marker-end="url(#arrow)"/><path d="M 880.0 525.0 L 1220.0 525.0 L 1220.0 495.0 L 1560.0 495.0" fill="none" stroke="#425466" stroke-width="1.5" marker-end="url(#arrow)"/><path d="M 880.0 525.0 L 1220.0 525.0 L 1220.0 635.0 L 1560.0 635.0" fill="none" stroke="#425466" stroke-width="1.5" marker-end="url(#arrow)"/><path d="M 880.0 525.0 L 1220.0 525.0 L 1220.0 785.0 L 1560.0 785.0" fill="none" stroke="#425466" stroke-width="1.5" marker-end="url(#arrow)"/><path d="M 880.0 525.0 L 1220.0 525.0 L 1220.0 350.0 L 1560.0 350.0" fill="none" stroke="#425466" stroke-width="1.5" marker-end="url(#arrow)"/></g></svg>