<svg xmlns="http://www.w3.org/2000/svg" width="1920" height="1080" viewBox="0 0 1920 1080"><defs><marker id="arrow" viewBox="0 0 10 10" refX="9" refY="5" markerWidth="8" markerHeight="8" orient="auto-start-reverse"><path d="M 0 0 L 10 5 L 0 10 z" fill="#425466"/></marker><filter id="softShadow" x="-20%" y="-20%" width="140%" height="140%"><feDropShadow dx="0" dy="4" stdDeviation="6" flood-color="#0F172A" flood-opacity="0.10"/></filter></defs><rect width="1920" height="1080" fill="#F4F7FB"/><g filter="url(#softShadow)"><rect x="40" y="20" width="1840" height="60" rx="0" ry="0" fill="#1F497D" stroke="#17375E" stroke-width="1.5"/><text x="960.0" y="41.0" fill="#FFFFFF" text-anchor="middle" font-family="Helvetica, Arial, sans-serif" font-weight="700"><tspan x="960.0" dy="0" font-size="26">Style Comparison: Visio Style</tspan><tspan x="960.0" dy="18" font-size="14">Use this page to compare presentation treatment before exporting final assets</tspan></text><rect x="120" y="220" width="180" height="70" rx="14" ry="14" fill="#FCE4D6" stroke="#C55A11" stroke-width="1.5"/><text x="210.0" y="255.0" fill="#1F1F1F" text-anchor="middle" font-family="Helvetica, Arial, sans-serif" font-weight="500"><tspan x="210.0" dy="0" font-size="13">User / Architect</tspan></text><rect x="420" y="220" width="220" height="90" rx="14" ry="14" fill="#D9E2F3" stroke="#4F81BD" stroke-width="1.5"/><text x="530.0" y="265.0" fill="#1F1F1F" text-anchor="middle" font-family="Helvetica, Arial, sans-serif" font-weight="500"><tspan x="530.0" dy="0" font-size="13">VS Code Extension</tspan></text><rect x="770" y="220" width="220" height="90" rx="14" ry="14" fill="#E2F0D9" stroke="#70AD47" stroke-width="1.5"/><text x="880.0" y="265.0" fill="#1F1F1F" text-anchor="middle" font-family="Helvetica, Arial, sans-serif" font-weight="500"><tspan x="880.0" dy="0" font-size="13">Python CLI Boundary</tspan></text><rect x="1120" y="220" width="220" height="90" rx="14" ry="14" fill="#D9E2F3" stroke="#4F81BD" stroke-width="1.5"/><text x="1230.0" y="265.0" fill="#1F1F1F" text-anchor="middle" font-family="Helvetica, Arial, sans-serif" font-weight="500"><tspan x="1230.0" dy="0" font-size="13">Backend Domains</tspan></text><rect x="1470" y="220" width="220" height="90" rx="14" ry="14" fill="#EDEDED" stroke="#7F7F7F" stroke-width="1.5"/><text x="1580.0" y="265.0" fill="#1F1F1F" text-anchor="middle" font-family="Helvetica, Arial, sans-serif" font-weight="500"><tspan x="1580.0" dy="0" font-size="13">Persistent Stores</tspan></text><rect x="540" y="520" width="820" height="160" rx="14" ry="14" fill="#FFF2CC" stroke="#BF9000" stroke-width="1.2" stroke-dasharray="8 6"/><text x="950.0" y="584.0" fill="#3F3F3F" text-anchor="middle" font-family="Helvetica, Arial, sans-serif" font-weight="500"><tspan x="950.0" dy="0" font-size="13">Visio Style</tspan><tspan x="950.0" dy="16" font-size="13">Most familiar for traditional enterprise audiences</tspan><tspan x="950.0" dy="16" font-size="13">Safe if stakeholders expect classic diagram language</tspan></text></g><g><path d="M 300.0 255.0 L 360.0 255.0 L 360.0 265.0 L 420.0 265.0" fill="none" stroke="#5B5B5B" stroke-width="1.3" marker-end="url(#arrow)"/><path d="M 640.0 265.0 L 705.0 265.0 L 705.0 265.0 L 770.0 265.0" fill="none" stroke="#5B5B5B" stroke-width="1.3" marker-end="url(#arrow)"/><path d="M 990.0 265.0 L 1055.0 265.0 L 1055.0 265.0 L 1120.0 265.0" fill="none" stroke="#5B5B5B" stroke-width="1.3" marker-end="url(#arrow)"/><path d="M 1340.0 265.0 L 1405.0 265.0 L 1405.0 265.0 L 1470.0 265.0" fill="none" stroke="#5B5B5B" stroke-width="1.3" marker-end="url(#arrow)"/></g></svg>